HIERARCHY
ROOT Hips
{
	OFFSET 0.000000 0.000000 0.000000
	CHANNELS 6 Xposition Yposition Zposition Zrotation Yrotation Xrotation 
	JOINT LHipJoint
	{
		OFFSET 0.000000 0.000000 0.000000
		CHANNELS 3 Zrotation Yrotation Xrotation
		JOINT LeftUpLeg
		{
			OFFSET 1.363060 -1.794630 0.839290
			CHANNELS 3 Zrotation Yrotation Xrotation
			JOINT LeftLeg
			{
				OFFSET 2.448110 -6.726130 0.000000
				CHANNELS 3 Zrotation Yrotation Xrotation
				JOINT LeftFoot
				{
					OFFSET 2.562200 -7.039590 0.000000
					CHANNELS 3 Zrotation Yrotation Xrotation
					JOINT LeftToeBase
					{
						OFFSET 0.157640 -0.433110 2.322550
						CHANNELS 3 Zrotation Yrotation Xrotation
						End Site
						{
							OFFSET 0.000000 0.000000 0.000000
						}
					}
				}
			}
		}
	}
	JOINT RHipJoint
	{
		OFFSET 0.000000 0.000000 0.000000
		CHANNELS 3 Zrotation Yrotation Xrotation
		JOINT RightUpLeg
		{
			OFFSET -1.305520 -1.794630 0.839290
			CHANNELS 3 Zrotation Yrotation Xrotation
			JOINT RightLeg
			{
				OFFSET -2.542530 -6.985550 0.000000
				CHANNELS 3 Zrotation Yrotation Xrotation
				JOINT RightFoot
				{
					OFFSET -2.568260 -7.056230 0.000000
					CHANNELS 3 Zrotation Yrotation Xrotation
					JOINT RightToeBase
					{
						OFFSET -0.164730 -0.452590 2.363150
						CHANNELS 3 Zrotation Yrotation Xrotation
						End Site
						{
							OFFSET 0.000000 0.000000 0.000000
						}
					}
				}
			}
		}
	}
}
MOTION
Frames: 22
Frame Time: 0.008333
3.110080 17.608506 2.472226 -29.398256 -29.687866 32.000423 -17.224563 -2.082528 4.887960 20.984058 -24.512529 -15.980677 1.960389 0.925492 18.144899 1.234808 6.037419 -7.918744 -0.005300 -0.000000 -31.417500 3.429094 2.907829 3.124356 -25.823924 -17.086748 -49.266947 1.436422 0.257402 -1.070322 -1.339320 -7.329092 20.766031 -3.574400 -0.000000 -69.710800
3.087966 17.605854 2.490317 -29.874246 -30.867636 32.436870 -17.184390 -2.077092 4.727300 20.526101 -23.112277 -15.596376 1.939561 0.869558 17.689034 1.200301 5.778188 -8.047878 -0.020200 -0.000000 -31.905400 3.567714 2.772129 3.174258 -24.901692 -15.371245 -50.296459 1.533683 0.132544 1.057734 -1.257926 -6.564633 22.049663 -3.309900 -0.000000 -70.927400
3.063569 17.602729 2.505082 -30.304218 -31.998988 32.835538 -17.134329 -2.060988 4.568383 20.066093 -21.739726 -15.242077 1.904066 0.820896 17.239541 1.154638 5.448110 -8.176863 -0.035000 -0.000000 -32.519800 3.719755 2.614799 3.239454 -24.323862 -13.379662 -50.995195 1.574172 -0.000253 3.122459 -1.166732 -5.666621 23.366953 -2.943600 -0.000000 -71.960400
3.037404 17.599614 2.516768 -30.670731 -33.048593 33.188192 -17.072048 -2.032758 4.421453 19.612096 -20.411576 -14.954279 1.856797 0.777393 16.815350 1.096784 5.044375 -8.275925 -0.046000 0.000000 -33.457300 3.880517 2.447474 3.318073 -23.948339 -11.262765 -51.488926 1.580536 -0.139856 5.186577 -1.055796 -4.545311 24.552498 -2.412100 -0.000000 -72.713200
3.010642 17.596906 2.525723 -30.951852 -33.981680 33.467974 -16.997737 -1.991727 4.294699 19.167047 -19.177255 -14.731679 1.798734 0.738258 16.430533 1.029327 4.581844 -8.352950 -0.053900 -0.000000 -34.507399 4.042596 2.281150 3.391720 -23.626602 -9.168563 -51.833814 1.573428 -0.285384 7.264756 -0.923333 -3.185388 25.501368 -1.703000 0.000000 -73.276900
2.983321 17.594940 2.532070 -31.127100 -34.781055 33.655791 -16.906757 -1.936396 4.194447 18.719569 -18.059392 -14.581282 1.731020 0.701152 16.093759 0.953958 4.071583 -8.398698 -0.057800 -0.000000 -35.686101 4.209077 2.125983 3.450810 -23.242376 -7.230282 -52.089886 1.567224 -0.437856 9.385282 -0.773025 -1.627178 26.150816 -0.847500 -0.000000 -73.700500
2.955165 17.593934 2.535945 -31.178233 -35.442091 33.735749 -16.794045 -1.865720 4.124017 18.253482 -17.074524 -14.500438 1.653967 0.663828 15.809461 0.873164 3.527868 -8.414825 -0.058000 -0.000001 -36.916900 4.385652 1.988923 3.487524 -22.716805 -5.547512 -52.280423 1.568420 -0.596802 11.543399 -0.614457 0.027480 26.498731 0.079800 -0.000001 -74.078300
2.925678 17.593936 2.537434 -31.096475 -35.973617 33.701852 -16.655312 -1.779542 4.083632 17.751977 -16.227131 -14.482182 1.567678 0.624299 15.577227 0.789494 2.964682 -8.406994 -0.055599 0.000000 -38.096300 4.578463 1.872430 3.498715 -22.013068 -4.175621 -52.407867 1.576803 -0.760066 13.707781 -0.460111 1.641984 26.589186 0.983800 -0.000000 -74.512200
2.894140 17.594885 2.536747 -30.881797 -36.396001 33.561720 -16.486610 -1.677872 4.072178 17.199560 -15.511724 -14.522137 1.472547 0.580851 15.392545 0.705587 2.397478 -8.377342 -0.050900 -0.000000 -39.178200 4.793377 1.774912 3.488179 -21.136978 -3.128715 -52.468204 1.587735 -0.923971 15.824798 -0.321955 3.077901 26.492433 1.775500 -0.000000 -75.094100
2.860033 17.596537 2.534266 -30.546471 -36.737314 33.334057 -16.287391 -1.562068 4.086563 16.589356 -14.914931 -14.612909 1.369379 0.532552 15.249085 0.623863 1.840237 -8.332238 -0.045000 -0.000000 -40.083400 5.032119 1.691323 3.462653 -20.118071 -2.383677 -52.454923 1.596254 -1.083669 17.827661 -0.208793 4.221940 26.280537 2.389500 0.000000 -75.874300
2.822995 17.598570 2.530549 -30.111347 -37.029817 33.046504 -16.058750 -1.433917 4.123904 15.920498 -14.422714 -14.749593 1.259519 0.478986 15.140690 0.546626 1.307546 -8.276870 -0.038299 -0.000000 -40.774099 5.293578 1.615519 3.432412 -19.001537 -1.895110 -52.369978 1.599059 -1.234126 19.650005 -0.124626 5.007964 26.008396 2.793799 0.000000 -76.840600
2.782799 17.600592 2.526223 -29.601359 -37.305714 32.731032 -15.804388 -1.295845 4.181362 15.201327 -14.021732 -14.927809 1.144868 0.420487 15.063086 0.475791 0.812506 -8.216849 -0.031500 0.000000 -41.232200 5.573177 1.541029 3.408419 -17.832346 -1.602788 -52.222352 1.595956 -1.370693 21.234928 -0.068656 5.422691 25.705664 2.986800 0.000000 -77.915000
2.739232 17.602247 2.521901 -29.039171 -37.594357 32.419197 -15.527221 -1.149656 4.258864 14.442559 -13.710037 -15.148599 1.027613 0.357382 15.014300 0.413577 0.372134 -8.157453 -0.025100 0.000000 -41.458800 5.866033 1.462952 3.402894 -16.653882 -1.447864 -52.033415 1.589250 -1.490374 22.545807 -0.035673 5.509230 25.377574 2.996100 -0.000000 -78.965200
2.692445 17.603122 2.518073 -28.450816 -37.920324 32.139638 -15.232184 -0.997839 4.356556 13.662534 -13.489717 -15.413125 0.910401 0.290898 14.997730 0.361551 -0.000198 -8.104680 -0.019700 -0.000001 -41.475700 6.165327 1.377121 3.425397 -15.496856 -1.369499 -51.824864 1.583364 -1.591316 23.563940 -0.017759 5.349917 25.014403 2.868200 0.000000 -79.842900
2.642707 17.602968 2.515115 -27.861337 -38.301971 31.916500 -14.926381 -0.843438 4.473874 12.886700 -13.362371 -15.721141 0.796108 0.223178 15.021782 0.320307 -0.298034 -8.064428 -0.015600 0.000000 -41.336800 6.462737 1.279566 3.481560 -14.374771 -1.308441 -51.614141 1.583876 -1.672750 24.286443 -0.005388 5.050196 24.604683 2.659900 -0.000000 -80.423300
2.590422 17.601522 2.513137 -27.291481 -38.750886 31.767246 -14.615092 -0.689030 4.611816 12.138660 -13.337089 -16.077491 0.687505 0.156336 15.099592 0.290375 -0.515419 -8.041942 -0.012800 0.000000 -41.105400 6.751812 1.167867 3.575393 -13.295753 -1.218216 -51.418419 1.595764 -1.735385 24.727031 0.011646 4.725694 24.142289 2.433000 0.000000 -80.638500
2.536083 17.598667 2.511941 -26.757794 -39.271670 31.701489 -14.303125 -0.537206 4.770781 11.440756 -13.422587 -16.486906 0.587054 0.092680 15.246942 0.271716 -0.651469 -8.041643 -0.011600 -0.000001 -40.847300 7.027014 1.040499 3.707742 -12.259968 -1.062766 -51.247706 1.622967 -1.780604 24.909011 0.042581 4.479730 23.632699 2.242100 0.000001 -80.491100
2.480118 17.594436 2.511201 -26.271308 -39.862711 31.722243 -13.995081 -0.390602 4.949007 10.812424 -13.619146 -16.951788 0.496520 0.034567 15.480434 0.263299 -0.713996 -8.066806 -0.011901 0.000000 -40.633200 7.283628 0.896622 3.876603 -11.262126 -0.814963 -51.102208 1.667928 -1.809859 24.860301 0.094351 4.387886 23.091783 2.126100 0.000000 -80.046301
2.423234 17.588843 2.510329 -25.841869 -40.517585 31.825136 -13.694965 -0.252130 5.142374 10.266995 -13.918194 -17.471919 0.416906 -0.015843 15.815229 0.263306 -0.717851 -8.119439 -0.013400 0.000000 -40.518200 7.518047 0.736807 4.077337 -10.296158 -0.458802 -50.972228 1.731297 -1.824442 24.611485 0.170451 4.491746 22.542824 2.106100 0.000000 -79.411800
2.366126 17.582017 2.508723 -25.475476 -41.226432 31.999650 -13.407059 -0.124717 5.342912 9.810770 -14.294736 -18.038992 0.348092 -0.056735 16.260349 0.268789 -0.686964 -8.200067 -0.015900 0.000000 -40.546800 7.727117 0.562324 4.303049 -9.354448 0.015777 -50.836352 1.812066 -1.825059 24.191617 0.270507 4.796351 22.009603 2.183300 -0.000001 -78.710900
2.309350 17.574098 2.505594 -25.166503 -41.976516 32.226813 -13.131138 -0.009820 5.543730 9.433317 -14.727726 -18.643301 0.288712 -0.088001 16.812586 0.277593 -0.638268 -8.306739 -0.019199 -0.000000 -40.717800 7.911854 0.377181 4.547951 -8.442645 0.601399 -50.676720 1.906784 -1.812960 23.633875 0.390952 5.282659 21.509852 2.347900 0.000000 -78.063400
2.253583 17.565271 2.500298 -24.909192 -42.755373 32.485018 -12.868594 0.090963 5.734194 9.119238 -15.179645 -19.263180 0.236615 -0.109933 17.457589 0.286873 -0.593375 -8.436473 -0.022900 0.000000 -41.020200 8.072677 0.185401 4.803897 -7.563493 1.289269 -50.466314 2.010984 -1.788845 22.968341 0.525167 5.906415 21.052506 2.577599 0.000000 -77.562200
